<?xml version="1.0" encoding="utf-8"?>
<svg xmlns="http://www.w3.org/2000/svg" version="1.1" width="200" height="200">
<title>Exemple LOGO</title>
<desc>Du LOGO.</desc>
<line x1="100" y1="100" x2="160.0" y2="100.0" stroke="black" stroke-width="2"/>
<line x1="160.0" y1="100.0" x2="160.0" y2="40.0" stroke="black" stroke-width="2"/>
<line x1="160.0" y1="40.0" x2="100.0" y2="39.99999999999999" stroke="black" stroke-width="2"/>
<line x1="100.0" y1="39.99999999999999" x2="99.99999999999999" y2="100.0" stroke="black" stroke-width="2"/>
<line x1="99.99999999999999" y1="100.0" x2="99.99999999999999" y2="91.0" stroke="black" stroke-width="2"/>
<line x1="99.99999999999999" y1="91.0" x2="91.54276641292681" y2="87.92181871006898" stroke="black" stroke-width="2"/>
<line x1="91.54276641292681" y1="87.92181871006898" x2="147.9243236600813" y2="108.4430273096091" stroke="black" stroke-width="2"/>
<line x1="147.9243236600813" y1="108.4430273096091" x2="168.44553225962144" y2="52.06147006245461" stroke="black" stroke-width="2"/>
<line x1="168.44553225962144" y1="52.06147006245461" x2="112.06397501246695" y2="31.540261462914476" stroke="black" stroke-width="2"/>
<line x1="112.06397501246695" y1="31.540261462914476" x2="91.54276641292671" y2="87.92181871006893" stroke="black" stroke-width="2"/>
<line x1="91.54276641292671" y1="87.92181871006893" x2="95.30498798950906" y2="77.58519988142393" stroke="black" stroke-width="2"/>
<line x1="95.30498798950906" y1="77.58519988142393" x2="87.52681339645702" y2="69.80702528837192" stroke="black" stroke-width="2"/>
<line x1="87.52681339645702" y1="69.80702528837192" x2="129.95322026764995" y2="112.2334321595647" stroke="black" stroke-width="2"/>
<line x1="129.95322026764995" y1="112.2334321595647" x2="172.37962713884266" y2="69.8070252883717" stroke="black" stroke-width="2"/>
<line x1="172.37962713884266" y1="69.8070252883717" x2="129.9532202676496" y2="27.380618417179072" stroke="black" stroke-width="2"/>
<line x1="129.9532202676496" y1="27.380618417179072" x2="87.52681339645704" y2="69.80702528837222" stroke="black" stroke-width="2"/>
<line x1="87.52681339645704" y1="69.80702528837222" x2="95.30498798950899" y2="62.028850695320116" stroke="black" stroke-width="2"/>
<line x1="95.30498798950899" y1="62.028850695320116" x2="91.54276641292655" y2="51.69223186667515" stroke="black" stroke-width="2"/>
<line x1="91.54276641292655" y1="51.69223186667515" x2="112.06397501246727" y2="108.07378911382943" stroke="black" stroke-width="2"/>
<line x1="112.06397501246727" y1="108.07378911382943" x2="168.44553225962153" y2="87.55258051428862" stroke="black" stroke-width="2"/>
<line x1="168.44553225962153" y1="87.55258051428862" x2="147.9243236600806" y2="31.17102326713441" stroke="black" stroke-width="2"/>
<line x1="147.9243236600806" y1="31.17102326713441" x2="91.54276641292643" y2="51.69223186667542" stroke="black" stroke-width="2"/>
</svg>